<svg xmlns="http://www.w3.org/2000/svg" viewBox="0 0 108 99.36" id="tata"><polyline fill="#3b73b9" fill-rule="evenodd" points="17.07 66.45 34.37 66.45 34.37 71.71 29.41 71.71 29.41 84.36 22.2 84.36 22.2 71.71 17.07 71.71 17.07 66.45"></polyline><polyline fill="#3b73b9" fill-rule="evenodd" points="43.13 73.68 39.49 84.36 32.57 84.36 39.36 66.45 46.87 66.45 53.83 84.36 46.82 84.36 43.13 73.68"></polyline><polyline fill="#3b73b9" fill-rule="evenodd" points="52.17 66.45 69.47 66.45 69.47 71.71 64.51 71.71 64.51 84.36 57.3 84.36 57.3 71.71 52.17 71.71 52.17 66.45"></polyline><polyline fill="#3b73b9" fill-rule="evenodd" points="78.23 73.68 74.59 84.36 67.67 84.36 74.45 66.45 81.97 66.45 88.92 84.36 81.92 84.36 78.23 73.68"></polyline><path fill="#3b73b9" fill-rule="evenodd" d="M78.49,33.55a16.28,16.28,0,0,0-2.56-3.62,25.13,25.13,0,0,0-9.7-6.18,39.74,39.74,0,0,0-26.42,0,25.13,25.13,0,0,0-9.7,6.18,16.11,16.11,0,0,0-2.56,3.63,112.79,112.79,0,0,1,22.22-3.08,2,2,0,0,1,1.7.69c.44.56.4,2.53.39,3.42l-.23,22.83,1.39,0,1.4,0-.23-22.83c0-.89,0-2.86.39-3.42a2,2,0,0,1,1.69-.69,113.63,113.63,0,0,1,22.22,3.07"></path><path fill="#3b73b9" fill-rule="evenodd" d="M79.59 36.52A95.92 95.92 0 0 0 62 34.22c-4.35-.24-4.4 1.31-4 4.28 0 .18.06.4.11.66 1.45 8.63 3.27 16.06 3.58 17.32 10.59-2.42 18.23-9.13 18.23-17a12.71 12.71 0 0 0-.35-2.94M48 38.5c.43-3 .37-4.52-4-4.28a95.91 95.91 0 0 0-17.61 2.3 12.71 12.71 0 0 0-.35 2.94 14 14 0 0 0 4 9.54 25 25 0 0 0 9.7 6.17 34.25 34.25 0 0 0 4.52 1.32c.3-1.18 2.15-8.76 3.63-17.54 0-.17 0-.33.07-.45"></path></svg>